<svg width="800" height="800" viewBox="0 0 800 800" fill="none" xmlns="http://www.w3.org/2000/svg">
<g clip-path="url(#clip0_1264_258)">
<path d="M400 100C234.315 100 100 234.315 100 400V600C100 655.23 144.772 700 200 700H246.066C271.317 700 294.401 685.733 305.694 663.147L311.521 651.493C301.044 644.18 290.892 635.697 281.403 626.14C244.778 589.26 216.667 535.153 216.667 466.667C216.667 442.167 220.803 417.787 228.295 394.753C231.619 384.533 240.861 383.333 250 383.333C306.354 383.333 356.18 355.38 386.373 312.507C389.493 308.074 394.577 305.436 400 305.436C405.42 305.436 410.503 308.074 413.627 312.507C443.817 355.38 493.643 383.333 550 383.333C559.14 383.333 568.383 384.533 571.707 394.753C579.197 417.79 583.333 442.167 583.333 466.667C583.333 535.153 555.223 589.26 518.597 626.14C509.107 635.697 498.957 644.18 488.48 651.493L494.307 663.147C505.6 685.733 528.683 700 553.933 700H600C655.23 700 700 655.23 700 600V400C700 234.315 565.687 100 400 100Z" fill="black"/>
</g>
<defs>
<clipPath id="clip0_1264_258">
<rect width="800" height="800" fill="white"/>
</clipPath>
</defs>
</svg>
