<svg width="800" height="800" viewBox="0 0 800 800" fill="none" xmlns="http://www.w3.org/2000/svg">
<path d="M334.4 224.8C334.4 224.8 244.8 320 244.8 549.6V744.8C244.8 768.8 264 788 288 788H511.2C535.2 788 554.4 768.8 554.4 744.8V549.6C554.4 320 464.8 224.8 464.8 224.8H334.4ZM360.8 276C330.4 306.4 296.8 421.6 296.8 554.4C296.8 559.2 293.6 562.4 288.8 562.4C284 562.4 280.8 559.2 280.8 554.4C280.8 416 315.2 298.4 348.8 264.8C352 261.6 356.8 261.6 360 264.8C363.2 268 363.2 272.8 360.8 276ZM532 11.2002H393.6C380.8 11.2002 370.4 21.6002 370.4 34.4002C370.4 35.2002 370.4 35.2002 370.4 36.0002V96.8002H355.2C344 96.8002 334.4 106.4 334.4 117.6V192H466.4V117.6C466.4 106.4 456.8 96.8002 445.6 96.8002H430.4V36.8002C430.4 36.0002 430.4 36.0002 430.4 35.2002H556C555.2 22.4002 544.8 11.2002 532 11.2002ZM523.2 118.4V121.6C523.2 130.4 530.4 137.6 539.2 137.6C548 137.6 555.2 130.4 555.2 121.6V118.4C555.2 89.6002 539.2 62.4002 539.2 62.4002C539.2 62.4002 523.2 89.6002 523.2 118.4ZM523.2 220.8V224C523.2 232.8 530.4 240 539.2 240C548 240 555.2 232.8 555.2 224V220.8C555.2 192 539.2 164.8 539.2 164.8C539.2 164.8 523.2 192 523.2 220.8Z" fill="black"/>
</svg>
