<svg width="800" height="800" viewBox="0 0 800 800" fill="none" xmlns="http://www.w3.org/2000/svg">
<g clip-path="url(#clip0_1264_264)">
<path d="M495.016 691.411H304.985C297.493 691.411 291.411 697.493 291.411 704.985C291.411 712.477 297.493 718.558 304.985 718.558H495.016C502.508 718.558 508.589 712.477 508.589 704.985C508.589 697.493 502.508 691.411 495.016 691.411Z" fill="black"/>
<path d="M495.016 637.116H304.985C297.493 637.116 291.411 643.198 291.411 650.69C291.411 658.182 297.493 664.264 304.985 664.264H495.016C502.508 664.264 508.589 658.182 508.589 650.69C508.589 643.198 502.508 637.116 495.016 637.116Z" fill="black"/>
<path d="M543.066 268.879L540.298 267.115C524.986 139.619 492.682 70.1894 464.299 32.9565C448.309 11.972 424.121 0 397.856 0H397.082C370.423 0.244006 346.059 12.7321 330.232 34.3001C303.587 70.5695 273.264 139.224 258.984 267.562L256.935 268.879C210.54 298.618 182.822 349.167 182.822 404.073V623.26C182.822 720.718 262.106 800.002 359.564 800.002H440.435C537.894 800.002 617.177 720.718 617.177 623.26V404.071C617.177 349.167 589.46 298.618 543.066 268.879ZM590.031 623.258C590.031 705.745 522.923 772.853 440.437 772.853H359.566C277.079 772.853 209.971 705.745 209.971 623.258V404.071C209.971 365.265 226.64 329.077 255.375 303.926C255.198 306.07 255.09 308.336 254.928 310.495C254.928 310.55 254.914 310.59 254.914 310.644C254.113 321.557 253.434 332.754 252.865 344.184C252.702 347.157 252.58 350.184 252.444 353.21C252.023 362.44 251.698 371.819 251.44 381.348C251.344 384.986 251.222 388.555 251.141 392.261C250.869 405.182 250.694 418.282 250.694 431.691V444.287C250.694 513.2 306.738 569.245 375.651 569.245H424.354C493.267 569.245 549.312 513.2 549.312 444.287V431.691C549.312 418.443 549.121 405.495 548.837 392.694C548.741 388.582 548.593 384.604 548.471 380.573C548.212 371.914 547.9 363.376 547.493 354.946C547.302 350.942 547.113 346.965 546.895 343.056C546.393 334.003 545.796 325.139 545.131 316.384C544.954 313.996 544.792 311.524 544.602 309.162C544.454 307.317 544.344 305.361 544.196 303.53C573.189 328.709 590.033 365.073 590.033 404.07V623.258H590.031Z" fill="black"/>
</g>
<defs>
<clipPath id="clip0_1264_264">
<rect width="800" height="800" fill="white"/>
</clipPath>
</defs>
</svg>
