<svg width="800" height="800" viewBox="0 0 800 800" fill="none" xmlns="http://www.w3.org/2000/svg">
<path d="M272.925 354.275L293.5 380L383.4 267.525L365.75 245.475C371.7 227.2 375 207.75 375 187.5C375 83.95 291.05 0 187.5 0C83.95 0 0 83.95 0 187.5C0 291.05 83.95 375 187.5 375C218.3 375 247.275 367.425 272.925 354.275ZM75 187.5C75 125.475 125.475 75 187.5 75C249.525 75 300 125.475 300 187.5C300 249.525 249.525 300 187.5 300C125.475 300 75 249.525 75 187.5ZM639.025 587.3C682.2 641.325 684.85 715.725 648.95 772C644.45 778.625 636.5 783.4 627.875 783.4C620.075 783.4 613.2 779.75 608.6 774.15L415.425 532.55L505.325 420.075L639.025 587.3ZM612.5 0C508.95 0 425 83.95 425 187.5C425 207.375 428.15 226.5 433.875 244.45L159.8 587.3C116.575 641.35 113.975 715.85 149.95 772.125C154.45 778.8 162.225 783.4 170.875 783.4C178.4 783.4 185.075 780 189.65 774.725C189.7 774.725 526.2 353.85 526.2 353.85C552.075 367.3 581.375 375 612.5 375C716.05 375 800 291.05 800 187.5C800 83.95 716.05 0 612.5 0ZM400 425C386.2 425 375 413.8 375 400C375 386.2 386.2 375 400 375C413.8 375 425 386.2 425 400C425 413.8 413.8 425 400 425ZM612.525 300C550.5 300 500.025 249.525 500.025 187.5C500.025 125.475 550.5 75 612.525 75C674.55 75 725.025 125.475 725.025 187.5C725.025 249.525 674.575 300 612.525 300Z" fill="black"/>
</svg>
